<?xml version="1.0" encoding="UTF-8"?>
<svg width="300" height="600" viewBox="0 0 300 600" fill="none" xmlns="http://www.w3.org/2000/svg">
  <!-- Phone Frame -->
  <rect x="10" y="10" width="280" height="580" rx="30" fill="#1A2C42" stroke="#42A5F5" stroke-width="2"/>
  <rect x="20" y="20" width="260" height="560" rx="25" fill="#0A192F"/>
  
  <!-- Status Bar -->
  <rect x="30" y="30" width="240" height="30" rx="5" fill="#172A46"/>
  <circle cx="45" cy="45" r="8" fill="#42A5F5"/>
  <rect x="200" y="40" width="50" height="10" rx="5" fill="#42A5F5"/>
  
  <!-- Chart Area -->
  <rect x="30" y="70" width="240" height="200" rx="10" fill="#172A46"/>
  <path d="M40 200 L80 160 L120 180 L160 140 L200 170 L240 130" stroke="#42A5F5" stroke-width="2" fill="none"/>
  
  <!-- Order Book -->
  <rect x="30" y="280" width="240" height="150" rx="10" fill="#172A46"/>
  <rect x="40" y="290" width="220" height="20" rx="5" fill="#1E3557"/>
  <rect x="40" y="320" width="220" height="20" rx="5" fill="#1E3557"/>
  <rect x="40" y="350" width="220" height="20" rx="5" fill="#1E3557"/>
  <rect x="40" y="380" width="220" height="20" rx="5" fill="#1E3557"/>
  
  <!-- Trading Panel -->
  <rect x="30" y="440" width="240" height="120" rx="10" fill="#172A46"/>
  <rect x="40" y="450" width="100" height="40" rx="5" fill="#4CAF50"/>
  <rect x="160" y="450" width="100" height="40" rx="5" fill="#F44336"/>
  <rect x="40" y="500" width="220" height="30" rx="5" fill="#1E3557"/>
</svg>
